<?xml version="1.0" standalone="no"?>
<!DOCTYPE svg PUBLIC "-//W3C//DTD SVG 20010904//EN"
 "http://www.w3.org/TR/2001/REC-SVG-20010904/DTD/svg10.dtd">
<svg version="1.0" xmlns="http://www.w3.org/2000/svg"
 width="577.000000pt" height="511.000000pt" viewBox="0 0 577.000000 511.000000"
 preserveAspectRatio="xMidYMid meet">

<g transform="translate(0.000000,511.000000) scale(0.100000,-0.100000)"
fill="#000000" stroke="none">
<path d="M2378 4636 c-18 -13 -25 -56 -10 -56 5 0 14 -16 22 -35 8 -19 17 -35
22 -35 4 0 8 -5 8 -10 0 -6 11 -28 25 -50 14 -22 25 -46 25 -55 0 -8 4 -15 8
-15 5 0 17 -17 28 -37 11 -21 32 -58 46 -83 14 -25 38 -67 54 -95 15 -27 31
-52 34 -55 3 -3 17 -27 30 -55 27 -57 34 -165 13 -186 -7 -7 -13 -21 -13 -31
0 -10 -4 -18 -10 -18 -26 0 6 -114 39 -140 3 -3 15 -23 26 -45 11 -22 22 -42
25 -45 3 -3 12 -18 20 -35 8 -16 25 -44 37 -61 13 -17 23 -36 23 -43 0 -19 52
-71 72 -71 14 0 18 8 18 40 0 22 -4 40 -9 40 -5 0 -17 16 -27 36 -11 20 -23
44 -29 55 -5 10 -13 19 -17 19 -5 0 -8 9 -8 20 0 11 -4 20 -10 20 -5 0 -10 7
-10 15 0 8 -4 15 -8 15 -5 0 -17 19 -28 43 -10 23 -27 51 -36 61 -19 21 -24
66 -8 66 6 0 10 9 10 20 0 11 5 20 10 20 6 0 10 38 10 94 0 53 -4 98 -10 101
-5 3 -10 15 -10 26 0 10 -3 19 -7 19 -5 0 -13 10 -19 23 -18 39 -69 131 -77
142 -17 22 -77 128 -77 136 0 5 -3 9 -7 9 -5 0 -16 20 -26 45 -11 25 -22 45
-26 45 -4 0 -13 16 -21 35 -8 19 -17 35 -22 35 -4 0 -8 6 -8 13 0 7 -12 27
-27 45 -25 28 -30 30 -45 18z"/>
<path d="M3295 4550 c-3 -5 -15 -10 -25 -10 -21 0 -80 -31 -80 -42 0 -5 -6 -8
-12 -8 -21 -1 -114 -94 -141 -142 -13 -24 -30 -53 -36 -64 -34 -60 -54 -171
-58 -339 -4 -151 -11 -203 -33 -225 -19 -19 -40 -73 -35 -90 11 -33 42 -23 72
23 16 23 31 44 36 45 4 2 7 15 7 28 0 13 4 24 9 24 5 0 11 78 14 173 3 94 10
197 16 227 24 125 128 262 238 316 41 20 69 27 120 27 43 1 68 -3 71 -11 2 -7
9 -12 16 -12 16 0 56 -42 56 -58 0 -7 4 -12 8 -12 11 0 32 -61 32 -92 0 -31
27 -61 47 -54 8 3 17 6 19 6 9 0 3 89 -6 95 -5 3 -10 19 -10 36 0 16 -4 29
-10 29 -5 0 -10 6 -10 14 0 19 -71 90 -110 110 -37 18 -185 23 -195 6z"/>
<path d="M2160 4505 c-11 -13 -8 -25 16 -70 15 -30 32 -55 36 -55 4 0 8 -9 8
-20 0 -11 4 -20 9 -20 5 0 11 -8 14 -17 8 -25 50 -97 60 -101 4 -2 7 -12 7
-23 0 -10 5 -19 10 -19 6 0 10 -7 10 -15 0 -8 3 -15 8 -15 4 0 16 -20 27 -45
11 -25 23 -45 27 -45 5 0 8 -9 8 -20 0 -11 4 -20 9 -20 5 0 21 -26 37 -57 16
-32 32 -59 37 -61 4 -2 7 -9 7 -16 0 -17 33 -46 52 -46 29 0 29 32 0 89 -34
66 -55 104 -62 111 -3 3 -12 19 -20 35 -8 17 -18 32 -21 35 -3 3 -14 23 -25
45 -10 22 -20 42 -23 45 -7 6 -24 35 -56 95 -12 22 -43 75 -69 118 -25 43 -46
82 -46 87 0 8 -24 20 -40 20 -4 0 -13 -7 -20 -15z"/>
<path d="M1962 4388 c-15 -15 -16 -58 -2 -58 6 0 10 -9 10 -20 0 -11 4 -20 9
-20 5 0 11 -8 14 -17 6 -18 48 -94 57 -103 5 -5 40 -67 69 -125 9 -16 19 -31
24 -33 4 -2 7 -8 7 -13 0 -6 16 -35 35 -65 19 -30 35 -59 35 -64 0 -6 5 -10
10 -10 6 0 10 -9 10 -20 0 -11 5 -20 10 -20 6 0 10 -6 10 -12 1 -28 93 -108
123 -108 10 0 17 -4 17 -9 0 -4 27 -11 60 -15 68 -8 71 -11 135 -141 22 -44
42 -82 45 -85 3 -3 14 -23 26 -45 23 -44 23 -43 -38 -140 -10 -16 -21 -38 -24
-47 -4 -10 -10 -18 -15 -18 -5 0 -9 -9 -9 -20 0 -11 -4 -20 -9 -20 -5 0 -11
-8 -15 -17 -3 -10 -20 -40 -37 -68 -18 -27 -48 -79 -67 -115 -20 -36 -38 -67
-41 -70 -3 -3 -13 -18 -21 -35 -8 -16 -21 -36 -27 -43 -7 -7 -13 -19 -13 -27
0 -7 -3 -15 -7 -17 -22 -9 -53 -94 -53 -141 0 -47 3 -54 41 -89 35 -32 47 -38
85 -38 25 0 57 6 72 14 33 17 72 61 72 81 0 8 3 15 8 15 4 0 20 27 37 60 16
33 33 60 37 60 4 0 8 9 8 19 0 11 3 21 8 23 4 2 15 19 24 38 20 40 61 113 68
120 17 17 50 105 45 121 -9 27 -47 24 -61 -4 -18 -38 -69 -132 -74 -137 -3 -3
-14 -23 -25 -45 -11 -22 -22 -42 -25 -45 -3 -3 -12 -18 -20 -35 -8 -16 -17
-32 -21 -35 -3 -3 -13 -22 -22 -42 -10 -20 -22 -40 -27 -43 -6 -3 -10 -15 -10
-26 0 -10 -4 -19 -8 -19 -5 0 -15 -11 -22 -25 -11 -20 -21 -25 -52 -25 -22 0
-46 6 -54 14 -21 21 -17 80 8 123 12 21 33 58 47 83 13 25 27 47 30 50 4 3 13
19 21 35 8 17 17 32 20 35 3 3 14 24 25 47 11 24 23 43 28 43 4 0 7 7 7 15 0
8 4 15 9 15 5 0 11 8 14 18 6 17 48 93 57 102 3 3 18 31 35 63 16 31 35 57 43
57 17 0 42 -24 42 -42 1 -40 61 -65 74 -31 7 17 -69 184 -86 191 -5 2 -8 12
-8 23 0 10 -4 19 -8 19 -4 0 -16 20 -26 45 -11 25 -23 45 -28 45 -4 0 -8 9 -8
19 0 11 -3 21 -7 23 -5 2 -26 38 -48 80 -44 86 -58 95 -149 105 -41 4 -66 12
-77 25 -9 10 -20 18 -23 18 -11 0 -36 27 -36 38 0 6 -4 12 -8 14 -8 3 -37 52
-93 153 -18 33 -35 62 -38 65 -4 3 -15 24 -26 47 -11 24 -23 43 -27 43 -5 0
-8 7 -8 15 0 8 -4 15 -10 15 -5 0 -10 9 -10 20 0 11 -3 20 -7 20 -11 0 -43 58
-43 76 0 8 -4 14 -10 14 -5 0 -10 7 -10 15 0 8 -4 15 -10 15 -5 0 -10 6 -10
13 0 13 -30 47 -41 47 -3 0 -10 -5 -17 -12z"/>
<path d="M3553 4107 c-10 -12 -25 -35 -33 -52 -16 -34 -43 -72 -80 -113 -30
-33 -159 -128 -198 -145 -15 -6 -36 -20 -46 -29 -11 -10 -25 -18 -30 -18 -6 0
-24 -11 -40 -25 -16 -14 -32 -25 -35 -25 -4 0 -20 -26 -36 -57 -17 -32 -33
-60 -36 -63 -3 -3 -15 -26 -27 -51 -25 -52 -21 -79 12 -79 16 0 29 14 51 58
17 31 33 59 38 60 4 2 7 10 7 18 0 18 96 114 113 114 7 0 25 11 41 25 16 14
35 25 43 25 7 0 13 5 13 10 0 6 9 10 20 10 11 0 20 4 20 8 0 4 15 16 33 27 48
28 159 144 182 190 11 22 23 42 26 45 4 3 10 19 13 37 6 25 3 34 -12 42 -15 8
-23 6 -39 -12z"/>
<path d="M2964 3256 c-3 -9 1 -27 10 -41 9 -13 16 -31 16 -40 0 -8 4 -15 9
-15 4 0 22 -26 40 -57 38 -72 64 -116 71 -123 3 -3 14 -23 25 -45 11 -22 23
-41 28 -43 4 -2 7 -10 7 -18 0 -8 5 -14 10 -14 6 0 10 -9 10 -20 0 -11 3 -20
8 -20 4 0 20 -24 36 -53 16 -28 32 -54 35 -57 12 -10 31 -61 31 -83 -1 -37
-24 -57 -64 -57 -36 0 -66 18 -66 39 0 6 -4 11 -9 11 -5 0 -17 20 -28 45 -10
25 -21 45 -25 45 -5 0 -8 9 -8 20 0 11 -3 20 -8 20 -4 0 -13 15 -21 33 -8 17
-17 34 -20 37 -3 3 -31 53 -61 112 -71 139 -76 145 -98 132 -25 -16 -27 -43
-6 -84 10 -19 21 -37 24 -40 3 -3 23 -41 45 -85 22 -44 43 -81 48 -83 4 -2 7
-12 7 -23 0 -10 3 -19 8 -19 4 0 15 -20 25 -45 11 -25 23 -45 28 -45 5 0 9 -9
9 -20 0 -11 5 -20 10 -20 6 0 10 -5 10 -12 0 -6 18 -29 41 -50 35 -33 47 -38
88 -38 43 0 76 14 106 45 6 5 17 29 24 53 11 33 12 48 3 67 -7 14 -12 35 -12
45 0 11 -4 20 -8 20 -5 0 -22 24 -37 53 -16 28 -31 54 -34 57 -3 3 -13 19 -21
35 -8 17 -17 32 -20 35 -15 14 -40 61 -40 75 0 8 -4 15 -10 15 -5 0 -10 6 -10
14 0 8 -4 16 -8 18 -4 2 -19 23 -33 48 -40 72 -54 95 -59 100 -3 3 -15 23 -27
45 -24 44 -68 61 -79 31z"/>
<path d="M2560 2000 c-14 -5 -42 -11 -62 -15 -35 -5 -54 -25 -25 -25 7 0 24
-5 38 -12 41 -19 49 -86 49 -426 0 -277 6 -343 25 -283 10 32 33 32 91 0 51
-29 60 -31 136 -27 53 2 83 8 86 16 2 6 10 12 18 12 18 0 94 76 94 94 0 8 6
16 13 18 8 3 12 34 12 109 0 95 -2 108 -27 149 -27 46 -60 80 -78 80 -6 0 -10
4 -10 9 0 14 -65 33 -116 33 -52 0 -102 -18 -125 -44 -9 -10 -19 -18 -23 -18
-3 0 -6 77 -6 170 l0 170 -32 -1 c-18 0 -44 -4 -58 -9z m283 -321 c31 -16 57
-45 57 -64 0 -8 5 -15 10 -15 6 0 10 -9 10 -19 0 -11 5 -23 10 -26 24 -15 3
-225 -22 -225 -5 0 -8 -5 -8 -12 0 -18 -42 -58 -61 -58 -10 0 -21 -4 -24 -10
-3 -5 -17 -10 -31 -10 -13 0 -24 5 -24 10 0 6 -8 10 -17 10 -21 0 -73 42 -73
59 0 6 -4 11 -10 11 -14 0 -13 255 1 283 26 52 62 76 112 76 27 1 58 -4 70
-10z"/>
<path d="M4403 2003 c-16 -6 -18 -99 -3 -108 6 -3 10 -25 10 -48 1 -23 7 -53
14 -65 l13 -24 11 29 c6 15 13 51 16 78 3 28 8 64 12 82 9 48 -26 75 -73 56z"/>
<path d="M1020 1941 c0 -11 -4 -23 -10 -26 -5 -3 -10 -15 -10 -26 0 -10 -3
-19 -7 -19 -5 0 -17 -29 -28 -65 -10 -36 -22 -65 -25 -65 -3 0 -12 -17 -19
-37 -17 -53 -61 -165 -72 -185 -5 -10 -9 -25 -9 -33 0 -8 -4 -15 -10 -15 -5 0
-10 -6 -10 -12 0 -7 -11 -42 -25 -78 -27 -70 -63 -120 -87 -120 -21 0 -39 -23
-29 -38 10 -17 213 -12 218 5 2 6 -5 14 -15 17 -32 10 -62 42 -62 65 0 11 5
21 10 21 6 0 10 13 10 28 0 25 13 63 39 112 7 12 33 15 137 15 l129 0 17 -35
c9 -19 17 -45 18 -57 0 -13 4 -23 9 -23 11 0 23 -74 15 -94 -3 -9 -12 -16 -19
-16 -32 0 -65 -20 -59 -35 9 -23 299 -18 299 5 0 8 -13 19 -30 25 -34 11 -55
28 -55 44 0 6 -4 11 -10 11 -5 0 -10 7 -10 16 0 8 -11 35 -25 60 -14 25 -25
54 -25 64 0 11 -4 20 -10 20 -5 0 -10 6 -10 13 0 12 -43 125 -61 159 -5 10 -9
25 -9 33 0 8 -4 15 -10 15 -5 0 -10 8 -10 18 0 10 -11 42 -25 70 -14 29 -25
61 -25 72 0 11 -4 20 -10 20 -5 0 -10 9 -10 19 0 11 -4 23 -10 26 -5 3 -10 15
-10 26 0 14 -7 19 -25 19 -18 0 -25 -5 -25 -19z m29 -190 c11 -27 21 -56 21
-65 0 -8 5 -18 10 -21 6 -3 10 -15 10 -26 0 -19 4 -28 28 -76 7 -13 12 -25 12
-28 0 -3 -49 -5 -110 -5 l-110 0 0 25 c0 14 5 25 10 25 6 0 10 7 10 15 0 8 4
23 9 33 5 9 17 37 26 62 9 25 21 53 26 62 5 10 9 25 9 33 0 33 29 12 49 -34z"/>
<path d="M1525 1718 c-72 -14 -75 -16 -75 -33 0 -10 10 -15 31 -15 54 0 58
-16 59 -210 0 -96 -4 -179 -8 -185 -11 -15 -50 -35 -68 -35 -13 0 -14 -3 -4
-15 17 -21 235 -22 243 -2 3 9 -7 19 -28 27 -41 16 -45 33 -45 187 0 154 26
211 111 241 47 16 75 15 104 -4 48 -31 55 -64 55 -241 0 -156 -1 -165 -20
-170 -11 -3 -20 -9 -20 -14 0 -5 -7 -9 -15 -9 -8 0 -15 -7 -15 -15 0 -12 19
-15 114 -15 89 0 116 3 126 15 10 13 9 15 -9 15 -11 0 -21 5 -21 10 0 6 -7 10
-15 10 -8 0 -18 12 -22 28 -10 35 -10 249 0 285 14 52 96 117 147 117 33 0 90
-33 90 -51 0 -10 5 -19 11 -21 13 -4 25 -243 15 -310 -6 -39 -11 -46 -42 -58
-60 -24 -34 -35 88 -38 96 -2 117 0 121 13 4 9 1 15 -8 15 -8 0 -26 10 -40 22
-25 21 -25 24 -25 174 0 153 -13 229 -43 258 -24 23 -70 36 -124 36 -69 0
-119 -16 -158 -52 -39 -36 -57 -35 -73 2 -8 18 -21 30 -32 30 -10 0 -22 5 -25
10 -9 14 -122 12 -164 -2 -20 -7 -52 -27 -70 -45 -32 -29 -36 -30 -48 -15 -7
9 -13 29 -13 45 0 30 -3 30 -85 15z"/>
<path d="M3314 1717 c-47 -18 -102 -59 -116 -87 -7 -14 -15 -27 -18 -30 -21
-21 -30 -60 -30 -132 0 -67 4 -88 20 -108 11 -14 20 -30 20 -36 0 -6 14 -24
32 -39 113 -101 267 -102 372 -3 59 56 76 98 77 187 1 104 -23 153 -107 221
-46 37 -183 52 -250 27z m192 -64 c22 -21 45 -54 52 -74 23 -68 9 -249 -20
-249 -4 0 -8 -5 -8 -11 0 -21 -54 -59 -85 -61 -74 -4 -109 6 -140 40 -14 15
-25 32 -25 39 0 7 -4 13 -10 13 -5 0 -10 12 -10 28 0 15 -4 42 -9 60 -20 67
33 217 80 229 10 3 19 9 19 14 0 5 26 9 59 9 54 0 61 -3 97 -37z"/>
<path d="M3722 1718 c-18 -18 -14 -28 11 -28 27 0 55 -29 81 -85 10 -22 27
-58 37 -79 11 -22 19 -46 19 -53 0 -7 5 -13 10 -13 6 0 10 -6 10 -12 0 -11 19
-56 61 -140 5 -10 9 -25 9 -33 0 -8 4 -15 8 -15 4 0 13 -14 20 -32 10 -27 9
-37 -11 -72 -12 -23 -25 -42 -29 -44 -5 -2 -8 -9 -8 -15 0 -14 -39 -32 -87
-42 -30 -6 -73 -35 -73 -49 0 -19 33 -36 69 -36 39 0 71 12 96 35 12 12 65
121 65 135 0 6 5 10 10 10 6 0 10 9 10 20 0 11 5 20 10 20 6 0 10 8 10 18 0 9
11 40 25 67 13 28 25 56 25 63 0 6 5 12 10 12 6 0 10 9 10 19 0 11 5 23 10 26
6 3 10 15 10 26 0 10 5 19 10 19 6 0 10 7 10 16 0 9 7 30 16 47 31 58 34 67
34 82 0 8 5 15 10 15 6 0 10 5 10 10 0 25 46 80 68 80 29 0 29 28 -1 35 -12 3
-58 5 -102 3 -67 -3 -80 -6 -83 -20 -3 -13 3 -18 22 -18 36 0 48 -27 33 -78
-7 -22 -16 -44 -20 -48 -4 -4 -7 -18 -7 -31 0 -12 -4 -23 -10 -23 -5 0 -10 -6
-10 -14 0 -17 -51 -139 -61 -146 -4 -3 -9 -14 -12 -25 -5 -19 -5 -19 -12 3 -4
12 -11 22 -16 22 -5 0 -9 9 -9 19 0 11 -4 22 -9 25 -5 3 -12 18 -15 33 -4 16
-15 46 -26 68 -28 59 -50 131 -50 165 0 25 4 30 24 30 23 0 41 22 29 34 -12
12 -229 6 -241 -6z"/>
<path d="M4665 1718 c-62 -36 -93 -125 -64 -181 19 -34 39 -52 119 -103 93
-60 120 -86 120 -117 0 -39 -46 -77 -92 -77 -32 0 -46 7 -83 45 -25 24 -45 53
-45 64 0 10 -7 21 -15 25 -13 4 -15 -8 -15 -74 0 -44 2 -80 5 -80 3 0 14 6 25
12 16 10 25 9 49 -5 36 -21 131 -23 169 -3 53 28 72 61 72 125 0 54 -3 62 -35
94 -20 20 -45 39 -55 42 -11 4 -20 11 -20 16 0 5 -6 9 -14 9 -8 0 -16 3 -18 8
-1 4 -21 19 -44 34 -45 29 -61 69 -44 113 8 22 15 25 60 25 50 0 80 -15 80
-39 0 -6 5 -11 10 -11 6 0 10 -9 10 -19 0 -10 7 -21 15 -25 12 -4 15 7 15 66
0 62 -2 69 -15 58 -12 -10 -21 -10 -41 -1 -32 14 -123 14 -149 -1z"/>
<path d="M2510 535 c0 -82 4 -124 10 -120 6 3 10 22 10 41 0 41 18 44 45 7 33
-44 49 -57 53 -44 2 6 -8 25 -22 42 -32 38 -33 54 -1 83 14 13 25 26 25 30 0
15 -24 4 -50 -24 -42 -45 -50 -39 -50 34 0 36 -4 68 -10 71 -6 4 -10 -38 -10
-120z"/>
<path d="M1482 533 l3 -118 63 -3 c51 -2 62 0 62 13 0 12 -12 15 -55 15 l-55
0 0 105 c0 65 -4 105 -10 105 -7 0 -10 -42 -8 -117z"/>
<path d="M2170 646 c0 -2 6 -9 14 -15 10 -9 16 -8 26 4 11 13 8 15 -14 15 -14
0 -26 -2 -26 -4z"/>
<path d="M2380 535 c0 -96 3 -115 15 -115 12 0 15 19 15 115 0 96 -3 115 -15
115 -12 0 -15 -19 -15 -115z"/>
<path d="M3422 533 l3 -118 68 1 c55 0 71 4 87 22 28 30 26 66 -5 80 l-26 12
23 30 c21 29 21 33 7 58 -14 25 -20 27 -87 30 l-73 3 3 -118z m132 81 c11 -28
6 -54 -9 -54 -8 0 -15 -4 -15 -10 0 -5 -16 -10 -35 -10 -35 0 -35 0 -35 45 l0
45 44 0 c31 0 46 -5 50 -16z m-6 -100 c12 -8 22 -24 22 -34 0 -26 -42 -52 -77
-48 -24 3 -28 8 -31 36 -2 19 -1 40 2 48 7 19 56 18 84 -2z"/>
<path d="M4081 593 c1 -93 17 -111 18 -20 1 45 -3 77 -9 77 -6 0 -10 -25 -9
-57z"/>
<path d="M1703 583 c-37 -7 -26 -23 16 -23 26 0 41 -5 45 -16 10 -27 7 -33
-26 -43 l-33 -9 33 -1 c32 -1 39 -12 26 -45 -10 -27 -84 -18 -84 10 0 8 5 14
10 14 6 0 10 5 10 10 0 16 -27 11 -34 -6 -12 -31 -6 -49 21 -61 15 -7 29 -9
32 -4 8 12 43 17 59 8 17 -12 17 129 -1 147 -17 17 -46 24 -74 19z"/>
<path d="M1937 583 c-3 -2 -20 -5 -39 -6 l-33 -2 -3 -74 c-2 -51 1 -77 10 -82
22 -14 28 1 28 72 l0 69 35 0 35 0 0 -70 c0 -55 3 -70 15 -70 11 0 15 16 17
68 3 61 5 67 26 70 39 6 52 -15 52 -79 0 -33 4 -59 10 -59 14 0 13 103 -2 135
-6 14 -18 26 -27 26 -27 2 -46 -2 -49 -12 -5 -12 -42 -12 -42 0 0 11 -26 22
-33 14z"/>
<path d="M2743 582 c-35 -5 -27 -22 10 -22 70 0 68 -52 -2 -64 -33 -5 -42 -11
-47 -31 -4 -18 -1 -32 11 -45 19 -21 45 -27 45 -11 0 13 48 19 59 8 8 -8 11
11 11 62 0 90 -20 114 -87 103z m62 -102 c12 -20 -15 -50 -46 -50 -34 0 -47
22 -27 44 15 17 64 21 73 6z"/>
<path d="M3711 580 c-41 -9 -35 -26 8 -22 33 3 40 0 46 -17 9 -30 1 -38 -49
-45 -40 -6 -56 -19 -56 -45 0 -4 9 -19 20 -32 18 -20 24 -21 40 -11 11 7 33
12 50 12 l30 0 0 60 c0 33 -4 60 -10 60 -5 0 -10 8 -10 19 0 21 -31 30 -69 21z
m59 -104 c0 -33 -13 -46 -46 -46 -36 0 -45 18 -21 45 16 19 67 19 67 1z"/>
<path d="M2180 501 c0 -44 5 -83 10 -86 6 -4 10 25 10 79 0 51 -4 86 -10 86
-6 0 -10 -33 -10 -79z"/>
<path d="M2910 562 c-9 -9 -15 -36 -15 -62 0 -49 10 -65 59 -90 23 -12 30 -12
33 -2 3 6 13 12 22 12 37 0 55 96 25 138 -12 17 -25 22 -62 22 -31 -1 -52 -6
-62 -18z m106 -19 c19 -25 17 -73 -3 -95 -19 -22 -59 -24 -79 -4 -17 18 -19
87 -2 104 18 18 69 15 84 -5z"/>
<path d="M3120 494 c0 -54 4 -83 10 -79 6 3 10 30 10 60 0 76 6 85 50 85 43 0
50 -12 50 -92 0 -26 5 -50 10 -53 17 -10 13 134 -4 151 -17 16 -59 18 -87 4
-13 -7 -19 -7 -19 0 0 5 -4 10 -10 10 -6 0 -10 -35 -10 -86z"/>
<path d="M3850 561 c0 -11 5 -23 10 -26 6 -3 10 -15 10 -26 0 -10 5 -19 10
-19 6 0 10 -7 10 -15 0 -8 6 -24 12 -35 10 -16 10 -24 0 -40 -14 -23 -16 -54
-3 -45 13 7 41 64 41 82 0 7 5 13 10 13 6 0 10 8 10 18 0 10 3 22 7 26 10 9
33 79 28 84 -8 9 -35 -27 -35 -47 0 -12 -4 -21 -10 -21 -5 0 -10 -9 -10 -20 0
-39 -28 -19 -50 35 -23 56 -40 71 -40 36z"/>
<path d="M4081 437 c-9 -12 -8 -16 3 -20 19 -7 27 4 17 21 -6 10 -10 10 -20
-1z"/>
</g>
</svg>
